<svg width="145" height="44" viewBox="0 0 145 44" fill="none" xmlns="http://www.w3.org/2000/svg">
<g id="Group 40">
<path id="Vector" d="M132.118 31.1551L130.847 31.597C130.582 31.6889 130.289 31.5925 130.129 31.3637L129.199 30.0267C128.849 29.5243 128.342 29.1564 127.757 28.9791L126.199 28.5081C125.932 28.4273 125.75 28.1783 125.755 27.8979L125.768 27.2766C125.845 27.3326 125.946 27.3483 126.04 27.3169L126.912 27.0141C127.228 26.9042 127.571 26.9042 127.885 27.0141L128.757 27.3169C128.883 27.3596 129.022 27.3169 129.098 27.207L129.625 26.4488C129.816 26.1752 130.094 25.9733 130.412 25.8768L131.295 25.6099C131.423 25.5717 131.508 25.4528 131.506 25.3205L131.488 24.3963C131.481 24.0621 131.587 23.7368 131.789 23.4699L132.347 22.7341C132.428 22.6287 132.428 22.4806 132.347 22.3752L131.789 21.6394C131.587 21.3725 131.481 21.0472 131.488 20.713L131.506 19.7888C131.508 19.6564 131.423 19.5375 131.295 19.4994L130.412 19.2325C130.091 19.136 129.816 18.9341 129.625 18.6604L129.098 17.9022C129.022 17.7923 128.883 17.7475 128.757 17.7923L127.885 18.0952C127.569 18.2051 127.226 18.2051 126.912 18.0952L126.04 17.7923C125.946 17.7587 125.845 17.7766 125.768 17.8327L125.755 17.2113C125.748 16.9309 125.93 16.6819 126.199 16.6012L127.757 16.1301C128.342 15.9529 128.849 15.585 129.199 15.0825L130.129 13.7456C130.289 13.5168 130.582 13.4203 130.847 13.5123L132.118 13.9542V13.9497H144.338C144.338 6.71316 135.394 0.741254 131.105 0.252236C130.959 0.236534 130.816 0.216346 130.672 0.207373C129.703 0.151293 129.385 0.169236 128.966 0.169236H127.046C125.255 0.169236 124.775 0.180453 122.928 0.180453H122.255V43.2252H122.928C124.775 43.2252 125.255 43.2364 127.046 43.2364H128.966C129.385 43.2364 129.701 43.2543 130.672 43.1983C130.816 43.1893 130.959 43.1691 131.105 43.1534C135.396 42.6644 144.338 38.4073 144.338 31.1708H132.118V31.1663V31.1551Z" fill="#00B768"/>
<path id="Vector_2" d="M116.232 26.0772L116.266 27.7057C116.273 27.9861 116.091 28.2351 115.822 28.3159L114.264 28.787C113.678 28.9642 113.172 29.3321 112.822 29.8345L111.891 31.1715C111.732 31.4003 111.439 31.4967 111.174 31.4048L109.636 30.8686C109.06 30.669 108.432 30.669 107.856 30.8686L106.317 31.4048C106.053 31.4967 105.759 31.4003 105.6 31.1715L104.669 29.8345C104.32 29.3321 103.813 28.9642 103.228 28.787L101.669 28.3159C101.403 28.2351 101.221 27.9861 101.225 27.7057L101.259 26.0772C101.272 25.467 101.077 24.8681 100.707 24.3813L99.7231 23.0825C99.555 22.8604 99.555 22.5509 99.7231 22.3288L100.707 21.03C101.077 20.5432 101.27 19.9465 101.259 19.3341L101.225 17.7056C101.219 17.4252 101.4 17.1762 101.669 17.0954L103.228 16.6243C103.813 16.4471 104.32 16.0792 104.669 15.5768L105.6 14.2398C105.759 14.011 106.053 13.9146 106.317 14.0065L107.842 14.5382V0C104.203 0.414992 100.763 0.935412 97.7253 1.43565V42.619C104.678 43.44 112.358 43.0402 119.764 43.4665V25.2786H116.338C116.264 25.5366 116.226 25.8057 116.232 26.0794V26.0772Z" fill="#00B768"/>
<path id="Vector_3" d="M12.332 0.183783C11.9015 0.132189 11.462 0.103027 11.0181 0.103027C9.83644 0.103027 8.69965 0.291458 7.63462 0.634668C3.20407 2.06358 0 6.22023 0 11.1261V35.4917C0 40.0521 4.33189 42.67 6.75344 43.2106C7.66601 43.4147 9.21087 43.4483 10.2535 43.4483V35.4065H14.0674C18.4666 35.4065 22.0317 31.842 22.0384 27.4431V27.4297V11.1239C22.0384 5.47997 17.7984 0.829825 12.3342 0.181541L12.332 0.183783ZM20.0384 22.4251C20.1258 22.5395 20.1662 22.6786 20.1639 22.8154C20.1662 22.9522 20.1258 23.0913 20.0384 23.208L19.054 24.5068C18.6841 24.9936 18.4913 25.5902 18.5025 26.2026L18.5361 27.8312C18.5428 28.1116 18.3612 28.3606 18.0921 28.4413L16.5338 28.9124C15.9486 29.0896 15.4419 29.4575 15.0921 29.96L14.1616 31.2969C14.0024 31.5257 13.7087 31.6222 13.4441 31.5302L11.906 30.9941C11.3297 30.7945 10.7019 30.7945 10.1257 30.9941L8.58754 31.5302C8.32297 31.6222 8.03148 31.5257 7.87005 31.2969L6.93954 29.96C6.58976 29.4575 6.08303 29.0896 5.49782 28.9124L3.93951 28.4413C3.67269 28.3606 3.49107 28.1116 3.49556 27.8312V27.8133C3.49556 27.8133 3.49556 27.8065 3.49556 27.8043L3.52919 26.1824C3.53816 25.579 3.34309 24.9891 2.97985 24.5068L1.99554 23.208C1.90809 23.0936 1.86773 22.9567 1.86998 22.8199C1.86549 22.6808 1.90809 22.5417 1.99554 22.4273L2.97985 21.1285C3.34757 20.644 3.5404 20.0495 3.52919 19.4416L3.49556 17.8333C3.49556 17.8333 3.49556 17.831 3.49556 17.8288V17.8041C3.48883 17.5237 3.67045 17.2747 3.93727 17.194L5.49558 16.7229C6.08079 16.5457 6.58752 16.1778 6.9373 15.6753L7.86781 14.3384C8.027 14.1096 8.32073 14.0131 8.5853 14.1051L10.1234 14.6412C10.6997 14.8408 11.3275 14.8408 11.9037 14.6412L13.4419 14.1051C13.7064 14.0131 13.9979 14.1096 14.1594 14.3384L15.0899 15.6753C15.4396 16.1778 15.9464 16.5457 16.5316 16.7229L18.0899 17.194C18.3567 17.2747 18.5383 17.5237 18.5339 17.8041V17.8221C18.5339 17.8221 18.5339 17.8288 18.5339 17.8333L18.5002 19.4551C18.4913 20.0585 18.6863 20.6485 19.0496 21.1308L20.0339 22.4296L20.0384 22.4251Z" fill="#00B768"/>
<path id="Vector_4" d="M67.5591 26.1088L67.5928 27.7373C67.5995 28.0177 67.4179 28.2667 67.1488 28.3475L65.5905 28.8185C65.0053 28.9958 64.4986 29.3636 64.1488 29.8661L63.2183 31.2031C63.0591 31.4319 62.7654 31.5283 62.5008 31.4364L60.9627 30.9002C60.3864 30.7006 59.7586 30.7006 59.1824 30.9002L57.6442 31.4364C57.3797 31.5283 57.0859 31.4341 56.9267 31.2031L55.9962 29.8661C55.6464 29.3636 55.1397 28.9958 54.5545 28.8185L52.9962 28.3475C52.7294 28.2667 52.5478 28.0177 52.5522 27.7373L52.5859 26.1088C52.5993 25.4986 52.4043 24.8997 52.0343 24.4129L51.05 23.1141C50.8818 22.892 50.8818 22.5825 51.05 22.3604L52.0343 21.0616C52.4043 20.5748 52.5971 19.9781 52.5859 19.3657L52.5522 17.7371C52.5455 17.4567 52.7271 17.2078 52.9962 17.127L54.5545 16.6559C55.1397 16.4787 55.6464 16.1108 55.9962 15.6084L56.9267 14.2714C57.0859 14.0426 57.3797 13.9461 57.6442 14.0381L59.1824 14.5742C59.7586 14.7739 60.3864 14.7739 60.9627 14.5742L62.5008 14.0381C62.7654 13.9461 63.0591 14.0426 63.2183 14.2714L64.1488 15.6084C64.4986 16.1108 65.0053 16.4787 65.5905 16.6559L67.1488 17.127C67.4156 17.2078 67.5973 17.4567 67.5928 17.7371L67.5591 19.3657C67.5591 19.4465 67.5591 19.5295 67.5659 19.6102H71.0928V4.37891H59.8595C53.8931 4.37891 49.0544 9.21749 49.0544 15.1889V30.1286C49.0544 36.0977 53.8908 40.9385 59.8595 40.9385H71.0928V25.4022H67.6399C67.5838 25.631 67.5547 25.8687 67.5591 26.1088Z" fill="#00B768"/>
<path id="Vector_5" d="M77.5895 17.0595L79.1478 16.5884C79.733 16.4112 80.2398 16.0433 80.5895 15.5408L81.52 14.2039C81.6792 13.9751 81.973 13.8786 82.2375 13.9706L83.5089 14.4125V14.408H95.2937V2.42261C94.6973 2.52804 94.1009 2.63122 93.5022 2.73665C88.6322 3.58458 84.7241 7.23651 83.5402 12.0392L83.5066 13.4479V3.74385C80.2285 4.23287 76.8989 4.41905 73.6455 4.3226V40.9944C76.9303 40.9316 80.2285 41.0864 83.5066 41.5731V33.141L83.5402 33.2778C84.7241 38.0805 88.6322 41.7302 93.5022 42.5803C94.0987 42.6835 94.6973 42.789 95.2937 42.8944V30.909H83.5089V30.9045L82.2375 31.3464C81.973 31.4384 81.6792 31.3419 81.52 31.1131L80.5895 29.7762C80.2398 29.2737 79.733 28.9058 79.1478 28.7286L77.5895 28.2575C77.3227 28.1768 77.1411 27.9278 77.1456 27.6474L77.1792 26.0188C77.1926 25.4087 76.9976 24.8097 76.6276 24.323L75.6433 23.0241C75.5715 22.9299 75.5312 22.8178 75.5222 22.7056C75.5222 22.6899 75.5222 22.6742 75.5222 22.6585C75.5222 22.6428 75.5222 22.6271 75.5222 22.6114C75.5312 22.4992 75.5715 22.3871 75.6433 22.2929L76.6276 20.994C76.9976 20.5073 77.1904 19.9106 77.1792 19.2982L77.1456 17.6696C77.1388 17.3892 77.3204 17.1402 77.5895 17.0595Z" fill="#00B768"/>
<path id="Vector_6" opacity="0.96" d="M24.5273 1.49512V14.5079C24.6439 14.5079 24.7605 14.4877 24.8726 14.4496L26.6507 13.8305C27.0946 13.6757 27.5879 13.8372 27.857 14.223L28.9332 15.7686C29.0678 15.9637 29.2651 16.1051 29.4915 16.1746L31.2942 16.7197C31.7449 16.8565 32.0499 17.276 32.0409 17.7471L32.0028 19.6314C31.9983 19.8669 32.0723 20.1002 32.2158 20.2886L33.3526 21.7893C33.4781 21.9531 33.5431 22.146 33.5588 22.3412C33.5431 22.5363 33.4781 22.7292 33.3526 22.893L32.2158 24.3937C32.0723 24.5821 31.9983 24.8132 32.0028 25.0509L32.0409 26.9352C32.0499 27.4063 31.7449 27.8258 31.2942 27.9626L29.4915 28.5077C29.2651 28.5772 29.0678 28.7186 28.9332 28.9137L27.857 30.4593C27.5879 30.8451 27.0946 31.0066 26.6507 30.8519L24.8726 30.2327C24.7605 30.1946 24.6439 30.1744 24.5273 30.1744V43.822C31.94 43.5596 39.3459 42.2765 46.5657 40.6793V30.3696C46.2742 30.3718 45.9828 30.4212 45.7025 30.5199L44.1643 31.056C43.8998 31.1479 43.606 31.0537 43.4469 30.8227L42.5163 29.4857C42.1666 28.9833 41.6598 28.6154 41.0746 28.4382L39.5163 27.9671C39.2495 27.8863 39.0679 27.6373 39.0724 27.3569L39.106 25.7284C39.1194 25.1182 38.9244 24.5193 38.5544 24.0325L37.5701 22.7337C37.4827 22.6193 37.4445 22.4802 37.4468 22.3434C37.4445 22.2066 37.4827 22.0675 37.5701 21.9531L38.5544 20.6543C38.9244 20.1675 39.1172 19.5708 39.106 18.9584L39.0724 17.3298C39.0656 17.0494 39.2473 16.8005 39.5163 16.7197L41.0746 16.2486C41.6598 16.0714 42.1666 15.7035 42.5163 15.2011L43.4469 13.8641C43.606 13.6353 43.8998 13.5388 44.1643 13.6308L45.7025 14.1669C45.9828 14.2634 46.2742 14.3127 46.5657 14.3172V4.64232C39.3459 3.04517 31.9377 1.7643 24.5273 1.4996V1.49512Z" fill="#00B768"/>
</g>
</svg>
