<svg width="95" height="95" viewBox="0 0 95 95" fill="none" xmlns="http://www.w3.org/2000/svg">
<path id="Union" fill-rule="evenodd" clip-rule="evenodd" d="M47.8204 47.4701L47.8206 47.468L47.8206 47.468L47.8211 47.4611L44.3197 0.525391H51.4486L47.8239 47.4657L47.8239 47.4667L78.5441 11.7936L83.585 16.8344L47.824 47.4684L47.8242 47.4699L94.7669 43.9679V51.0968L47.8271 47.4721L47.8255 47.4722L83.5002 78.1937L78.4594 83.2346L47.8243 47.4724L51.3252 94.4015H44.1964L47.8201 47.474L17.0959 83.1519L12.0551 78.111L47.8202 47.4735L47.8202 47.4726L47.819 47.4727L47.8182 47.4734L47.8188 47.4727L0.873047 50.9749L0.873048 43.846L47.8129 47.4707L47.8179 47.4703L12.1428 16.7484L17.1836 11.7076L47.8191 47.4702L47.8204 47.4701Z" fill="white"/>
</svg>
