<svg width="94" height="95" viewBox="0 0 94 95" fill="none" xmlns="http://www.w3.org/2000/svg">
<path id="Union" fill-rule="evenodd" clip-rule="evenodd" d="M46.9474 47.2274L46.9476 47.2253L46.9476 47.2252L46.9481 47.2184L43.4467 0.282623H50.5755L46.9508 47.223L46.9509 47.224L77.6711 11.5508L82.7119 16.5917L46.951 47.2256L46.9511 47.2271L93.8939 43.7252V50.854L46.954 47.2293L46.9525 47.2294L82.6272 77.951L77.5863 82.9918L46.9513 47.2296L50.4522 94.1587H43.3234L46.9471 47.2313L16.2229 82.9091L11.182 77.8682L46.9471 47.2307L46.9472 47.2298L46.946 47.2299L46.9451 47.2306L46.9457 47.2299L0 50.7321L9.3483e-07 43.6032L46.9398 47.2279L46.9449 47.2276L11.2697 16.5056L16.3106 11.4648L46.946 47.2275L46.9474 47.2274Z" fill="black"/>
</svg>
