<svg width="145" height="44" viewBox="0 0 145 44" fill="none" xmlns="http://www.w3.org/2000/svg">
<g id="Group 40">
<path id="Vector" d="M132.118 31.177L130.847 31.6189C130.582 31.7109 130.289 31.6144 130.129 31.3856L129.199 30.0487C128.849 29.5462 128.342 29.1783 127.757 29.0011L126.199 28.53C125.932 28.4493 125.75 28.2003 125.755 27.9199L125.768 27.2985C125.845 27.3546 125.946 27.3703 126.04 27.3389L126.912 27.0361C127.228 26.9262 127.571 26.9262 127.885 27.0361L128.757 27.3389C128.883 27.3815 129.022 27.3389 129.098 27.229L129.625 26.4708C129.816 26.1971 130.094 25.9952 130.412 25.8988L131.295 25.6318C131.423 25.5937 131.508 25.4748 131.506 25.3425L131.488 24.4183C131.481 24.084 131.587 23.7588 131.789 23.4918L132.347 22.7561C132.428 22.6506 132.428 22.5026 132.347 22.3971L131.789 21.6614C131.587 21.3944 131.481 21.0692 131.488 20.7349L131.506 19.8107C131.508 19.6784 131.423 19.5595 131.295 19.5214L130.412 19.2544C130.091 19.158 129.816 18.9561 129.625 18.6824L129.098 17.9242C129.022 17.8143 128.883 17.7694 128.757 17.8143L127.885 18.1171C127.569 18.227 127.226 18.227 126.912 18.1171L126.04 17.8143C125.946 17.7806 125.845 17.7986 125.768 17.8547L125.755 17.2333C125.748 16.9529 125.93 16.7039 126.199 16.6232L127.757 16.1521C128.342 15.9749 128.849 15.607 129.199 15.1045L130.129 13.7676C130.289 13.5388 130.582 13.4423 130.847 13.5343L132.118 13.9762V13.9717H144.338C144.338 6.73514 135.394 0.763226 131.105 0.274209C130.959 0.258507 130.816 0.238319 130.672 0.229346C129.703 0.173266 129.385 0.191208 128.966 0.191208H127.046C125.255 0.191208 124.775 0.202425 122.928 0.202425H122.255V43.2472H122.928C124.775 43.2472 125.255 43.2584 127.046 43.2584H128.966C129.385 43.2584 129.701 43.2763 130.672 43.2202C130.816 43.2113 130.959 43.1911 131.105 43.1754C135.396 42.6864 144.338 38.4293 144.338 31.1927H132.118V31.1882V31.177Z" fill="#00B768"/>
<path id="Vector_2" d="M116.232 26.0991L116.266 27.7277C116.273 28.0081 116.091 28.2571 115.822 28.3379L114.264 28.8089C113.678 28.9861 113.172 29.354 112.822 29.8565L111.891 31.1935C111.732 31.4223 111.439 31.5187 111.174 31.4267L109.636 30.8906C109.06 30.691 108.432 30.691 107.856 30.8906L106.317 31.4267C106.053 31.5187 105.759 31.4223 105.6 31.1935L104.669 29.8565C104.32 29.354 103.813 28.9861 103.228 28.8089L101.669 28.3379C101.403 28.2571 101.221 28.0081 101.225 27.7277L101.259 26.0991C101.272 25.489 101.077 24.8901 100.707 24.4033L99.7231 23.1045C99.555 22.8824 99.555 22.5728 99.7231 22.3508L100.707 21.052C101.077 20.5652 101.27 19.9685 101.259 19.3561L101.225 17.7275C101.219 17.4471 101.4 17.1981 101.669 17.1174L103.228 16.6463C103.813 16.4691 104.32 16.1012 104.669 15.5987L105.6 14.2618C105.759 14.033 106.053 13.9365 106.317 14.0285L107.842 14.5601V0.0219727C104.203 0.436964 100.763 0.957385 97.7253 1.45762V42.641C104.678 43.462 112.358 43.0622 119.764 43.4884V25.3006H116.338C116.264 25.5585 116.226 25.8277 116.232 26.1014V26.0991Z" fill="#00B768"/>
<path id="Vector_3" d="M12.332 0.205755C11.9015 0.154162 11.462 0.125 11.0181 0.125C9.83644 0.125 8.69965 0.313431 7.63462 0.65664C3.20407 2.08556 0 6.2422 0 11.1481V35.5137C0 40.0741 4.33189 42.6919 6.75344 43.2325C7.66601 43.4367 9.21087 43.4703 10.2535 43.4703V35.4284H14.0674C18.4666 35.4284 22.0317 31.864 22.0384 27.4651V27.4516V11.1458C22.0384 5.50195 17.7984 0.851798 12.3342 0.203513L12.332 0.205755ZM20.0384 22.4471C20.1258 22.5615 20.1662 22.7005 20.1639 22.8374C20.1662 22.9742 20.1258 23.1133 20.0384 23.2299L19.054 24.5287C18.6841 25.0155 18.4913 25.6122 18.5025 26.2246L18.5361 27.8532C18.5428 28.1336 18.3612 28.3826 18.0921 28.4633L16.5338 28.9344C15.9486 29.1116 15.4419 29.4795 15.0921 29.982L14.1616 31.3189C14.0024 31.5477 13.7087 31.6442 13.4441 31.5522L11.906 31.0161C11.3297 30.8164 10.7019 30.8164 10.1257 31.0161L8.58754 31.5522C8.32297 31.6442 8.03148 31.5477 7.87005 31.3189L6.93954 29.982C6.58976 29.4795 6.08303 29.1116 5.49782 28.9344L3.93951 28.4633C3.67269 28.3826 3.49107 28.1336 3.49556 27.8532V27.8352C3.49556 27.8352 3.49556 27.8285 3.49556 27.8263L3.52919 26.2044C3.53816 25.601 3.34309 25.011 2.97985 24.5287L1.99554 23.2299C1.90809 23.1155 1.86773 22.9787 1.86998 22.8419C1.86549 22.7028 1.90809 22.5637 1.99554 22.4493L2.97985 21.1505C3.34757 20.666 3.5404 20.0715 3.52919 19.4636L3.49556 17.8552C3.49556 17.8552 3.49556 17.853 3.49556 17.8508V17.8261C3.48883 17.5457 3.67045 17.2967 3.93727 17.2159L5.49558 16.7449C6.08079 16.5676 6.58752 16.1998 6.9373 15.6973L7.86781 14.3603C8.027 14.1315 8.32073 14.0351 8.5853 14.127L10.1234 14.6632C10.6997 14.8628 11.3275 14.8628 11.9037 14.6632L13.4419 14.127C13.7064 14.0351 13.9979 14.1315 14.1594 14.3603L15.0899 15.6973C15.4396 16.1998 15.9464 16.5676 16.5316 16.7449L18.0899 17.2159C18.3567 17.2967 18.5383 17.5457 18.5339 17.8261V17.844C18.5339 17.844 18.5339 17.8507 18.5339 17.8552L18.5002 19.4771C18.4913 20.0805 18.6863 20.6705 19.0496 21.1527L20.0339 22.4516L20.0384 22.4471Z" fill="#00B768"/>
<path id="Vector_4" d="M67.5591 26.1307L67.5928 27.7593C67.5995 28.0397 67.4179 28.2887 67.1488 28.3695L65.5905 28.8405C65.0053 29.0177 64.4986 29.3856 64.1488 29.8881L63.2183 31.225C63.0591 31.4538 62.7654 31.5503 62.5008 31.4583L60.9627 30.9222C60.3864 30.7226 59.7586 30.7226 59.1824 30.9222L57.6442 31.4583C57.3797 31.5503 57.0859 31.4561 56.9267 31.225L55.9962 29.8881C55.6464 29.3856 55.1397 29.0177 54.5545 28.8405L52.9962 28.3695C52.7294 28.2887 52.5478 28.0397 52.5522 27.7593L52.5859 26.1307C52.5993 25.5206 52.4043 24.9217 52.0343 24.4349L51.05 23.1361C50.8818 22.914 50.8818 22.6044 51.05 22.3824L52.0343 21.0835C52.4043 20.5968 52.5971 20.0001 52.5859 19.3877L52.5522 17.7591C52.5455 17.4787 52.7271 17.2297 52.9962 17.149L54.5545 16.6779C55.1397 16.5007 55.6464 16.1328 55.9962 15.6303L56.9267 14.2934C57.0859 14.0646 57.3797 13.9681 57.6442 14.0601L59.1824 14.5962C59.7586 14.7959 60.3864 14.7959 60.9627 14.5962L62.5008 14.0601C62.7654 13.9681 63.0591 14.0646 63.2183 14.2934L64.1488 15.6303C64.4986 16.1328 65.0053 16.5007 65.5905 16.6779L67.1488 17.149C67.4156 17.2297 67.5973 17.4787 67.5928 17.7591L67.5591 19.3877C67.5591 19.4684 67.5591 19.5514 67.5659 19.6322H71.0928V4.40088H59.8595C53.8931 4.40088 49.0544 9.23946 49.0544 15.2109V30.1506C49.0544 36.1197 53.8908 40.9605 59.8595 40.9605H71.0928V25.4241H67.6399C67.5838 25.6529 67.5547 25.8907 67.5591 26.1307Z" fill="#00B768"/>
<path id="Vector_5" d="M77.5895 17.0817L79.1478 16.6106C79.733 16.4334 80.2398 16.0655 80.5895 15.563L81.52 14.2261C81.6792 13.9973 81.973 13.9008 82.2375 13.9928L83.5089 14.4347V14.4302H95.2937V2.44482C94.6973 2.55025 94.1009 2.65344 93.5022 2.75887C88.6322 3.6068 84.7241 7.25873 83.5402 12.0614L83.5066 13.4701V3.76607C80.2285 4.25509 76.8989 4.44127 73.6455 4.34481V41.0166C76.9303 40.9538 80.2285 41.1086 83.5066 41.5954V33.1632L83.5402 33.3C84.7241 38.1027 88.6322 41.7524 93.5022 42.6026C94.0987 42.7057 94.6973 42.8112 95.2937 42.9166V30.9312H83.5089V30.9267L82.2375 31.3686C81.973 31.4606 81.6792 31.3641 81.52 31.1353L80.5895 29.7984C80.2398 29.2959 79.733 28.928 79.1478 28.7508L77.5895 28.2797C77.3227 28.199 77.1411 27.95 77.1456 27.6696L77.1792 26.041C77.1926 25.4309 76.9976 24.8319 76.6276 24.3452L75.6433 23.0464C75.5715 22.9521 75.5312 22.84 75.5222 22.7278C75.5222 22.7121 75.5222 22.6964 75.5222 22.6807C75.5222 22.665 75.5222 22.6493 75.5222 22.6336C75.5312 22.5214 75.5715 22.4093 75.6433 22.3151L76.6276 21.0163C76.9976 20.5295 77.1904 19.9328 77.1792 19.3204L77.1456 17.6918C77.1388 17.4114 77.3204 17.1624 77.5895 17.0817Z" fill="#00B768"/>
<path id="Vector_6" opacity="0.96" d="M24.5273 1.51709V14.5299C24.6439 14.5299 24.7605 14.5097 24.8726 14.4716L26.6507 13.8524C27.0946 13.6977 27.5879 13.8592 27.857 14.245L28.9332 15.7906C29.0678 15.9857 29.2651 16.127 29.4915 16.1966L31.2942 16.7417C31.7449 16.8785 32.0499 17.298 32.0409 17.7691L32.0028 19.6533C31.9983 19.8889 32.0723 20.1222 32.2158 20.3106L33.3526 21.8113C33.4781 21.9751 33.5431 22.168 33.5588 22.3631C33.5431 22.5583 33.4781 22.7512 33.3526 22.915L32.2158 24.4157C32.0723 24.6041 31.9983 24.8351 32.0028 25.0729L32.0409 26.9572C32.0499 27.4283 31.7449 27.8477 31.2942 27.9846L29.4915 28.5297C29.2651 28.5992 29.0678 28.7405 28.9332 28.9357L27.857 30.4813C27.5879 30.8671 27.0946 31.0286 26.6507 30.8738L24.8726 30.2547C24.7605 30.2166 24.6439 30.1964 24.5273 30.1964V43.844C31.94 43.5815 39.3459 42.2984 46.5657 40.7013V30.3915C46.2742 30.3938 45.9828 30.4431 45.7025 30.5418L44.1643 31.0779C43.8998 31.1699 43.606 31.0757 43.4469 30.8447L42.5163 29.5077C42.1666 29.0052 41.6598 28.6374 41.0746 28.4601L39.5163 27.9891C39.2495 27.9083 39.0679 27.6593 39.0724 27.3789L39.106 25.7504C39.1194 25.1402 38.9244 24.5413 38.5544 24.0545L37.5701 22.7557C37.4827 22.6413 37.4445 22.5022 37.4468 22.3654C37.4445 22.2285 37.4827 22.0895 37.5701 21.9751L38.5544 20.6762C38.9244 20.1895 39.1172 19.5928 39.106 18.9804L39.0724 17.3518C39.0656 17.0714 39.2473 16.8224 39.5163 16.7417L41.0746 16.2706C41.6598 16.0934 42.1666 15.7255 42.5163 15.223L43.4469 13.8861C43.606 13.6573 43.8998 13.5608 44.1643 13.6528L45.7025 14.1889C45.9828 14.2854 46.2742 14.3347 46.5657 14.3392V4.6643C39.3459 3.06714 31.9377 1.78627 24.5273 1.52157V1.51709Z" fill="#00B768"/>
</g>
</svg>
