<svg width="64" height="65" viewBox="0 0 64 65" fill="none" xmlns="http://www.w3.org/2000/svg">
<g id="katman_1" clip-path="url(#clip0_189_2067)">
<path id="Vector" d="M52.6669 0.919922H11.3331C5.07392 0.919922 0 6.12394 0 12.5436V53.2962C0 59.7159 5.07392 64.9199 11.3331 64.9199H52.6669C58.9261 64.9199 64 59.7159 64 53.2962V12.5436C64 6.12394 58.9261 0.919922 52.6669 0.919922Z" fill="#00005B"/>
<path id="Vector_2" d="M25.7139 39.2085H15.7965L13.7792 45.6505C13.7511 45.7674 13.6858 45.8711 13.5911 45.9433C13.4963 46.0155 13.3811 46.0523 13.2634 46.0457H8.24066C7.95394 46.0457 7.8541 45.8842 7.93986 45.5613L16.5261 20.3026C16.6119 20.0387 16.6976 19.7801 16.7834 19.4427C16.896 18.8559 16.9536 18.2585 16.9549 17.6599C16.9485 17.6179 16.9523 17.5759 16.9664 17.5352C16.9792 17.4958 17.001 17.459 17.0304 17.4288C17.0599 17.3986 17.0957 17.3763 17.1341 17.3632C17.1738 17.3501 17.2147 17.3461 17.2557 17.3514H24.0819C24.2816 17.3514 24.3968 17.4249 24.425 17.5719L34.1709 45.6059C34.2567 45.9 34.1709 46.047 33.9136 46.0457H28.3315C28.2355 46.0562 28.1395 46.0312 28.0602 45.9748C27.9808 45.9183 27.9245 45.8343 27.9015 45.7372L25.7114 39.2072L25.7139 39.2085ZM17.3427 33.7774H24.1267C23.9552 33.1905 23.7543 32.5302 23.5251 31.7963C23.296 31.0625 23.0528 30.2774 22.7955 29.4411C22.5383 28.6049 22.281 27.7673 22.0224 26.931C21.7651 26.0948 21.5283 25.2874 21.3133 24.5089C21.0983 23.7317 20.905 23.0201 20.7335 22.3729H20.6912C20.4493 23.5623 20.1485 24.7373 19.7901 25.8952C19.3895 27.2159 18.9811 28.5668 18.5664 29.9466C18.1517 31.3263 17.7434 32.6037 17.3427 33.7774Z" fill="#9999FF"/>
<path id="Vector_3" d="M49.9726 36.7007H41.5143C41.618 37.5593 41.8958 38.385 42.3297 39.1268C42.8097 39.8606 43.4894 40.4343 44.283 40.7783C45.3595 41.2562 46.5243 41.4898 47.6967 41.4649C48.6273 41.4465 49.554 41.3428 50.4654 41.1524C51.2807 41.0395 52.0807 40.8256 52.8462 40.5157C52.9895 40.3989 53.0612 40.4724 53.0612 40.7363V44.9189C53.0676 45.0331 53.0459 45.1474 52.9972 45.2498C52.9486 45.3298 52.882 45.3981 52.8039 45.448C51.9553 45.834 51.0606 46.107 50.1441 46.2606C48.8987 46.5009 47.6327 46.6112 46.3655 46.5915C44.3329 46.5915 42.6292 46.2685 41.2558 45.6226C39.9579 45.0358 38.811 44.147 37.9073 43.0245C37.0625 41.9677 36.4353 40.7468 36.0615 39.4353C35.6916 38.1408 35.5035 36.7991 35.5035 35.4496C35.4996 33.9766 35.7249 32.5128 36.1691 31.112C36.5979 29.7453 37.275 28.4759 38.1659 27.3691C39.0439 26.2756 40.1422 25.3894 41.3863 24.7711C42.6459 24.1396 44.1345 23.9138 45.851 23.9138C47.2756 23.877 48.69 24.1619 49.9943 24.7501C51.0913 25.2292 52.0564 25.9776 52.8065 26.928C53.5092 27.8588 54.0481 28.9104 54.395 30.0329C54.7329 31.1146 54.907 32.2436 54.9108 33.3792C54.9108 34.0251 54.8891 34.612 54.8468 35.141C54.8046 35.6688 54.7687 36.0508 54.7393 36.2858C54.7278 36.383 54.683 36.4722 54.6113 36.5379C54.5396 36.6022 54.4487 36.639 54.3527 36.639C54.1812 36.639 53.8881 36.6613 53.4721 36.7046C53.0574 36.7492 52.5415 36.7781 51.9259 36.7926C51.3102 36.807 50.6599 36.7007 49.9726 36.7007ZM41.5143 32.69H47.1387C47.826 32.69 48.3342 32.6821 48.6631 32.6677C48.8833 32.6454 49.0958 32.5732 49.2852 32.4563V32.1924C49.2763 31.8485 49.2187 31.5072 49.1137 31.1803C48.882 30.4293 48.4161 29.7769 47.7876 29.3226C47.1591 28.8697 46.4039 28.64 45.6359 28.6701C44.914 28.6255 44.1934 28.7975 43.5649 29.1651C42.9364 29.5327 42.4244 30.0801 42.0942 30.7405C41.7998 31.3549 41.6039 32.0139 41.5143 32.6913V32.69Z" fill="#9999FF"/>
</g>
<defs>
<clipPath id="clip0_189_2067">
<rect width="64" height="64" fill="white" transform="translate(0 0.919922)"/>
</clipPath>
</defs>
</svg>
