<svg width="28" height="42" viewBox="0 0 28 42" fill="none" xmlns="http://www.w3.org/2000/svg">
<g id="Layer_1" clip-path="url(#clip0_189_2057)">
<path id="path0_fill" d="M7.00005 41.7568C10.8641 41.7568 14.0001 38.6451 14.0001 34.811V27.8652H7.00005C3.13596 27.8652 0 30.9771 0 34.811C0 38.6449 3.13596 41.7568 7.00005 41.7568Z" fill="#0ACF83"/>
<path id="path1_fill" d="M0 20.9199C0 17.0858 3.13596 13.9741 7.00005 13.9741H14.0001V27.8657H7.00005C3.13596 27.8657 0 24.754 0 20.9199Z" fill="#A259FF"/>
<path id="path1_fill-2" d="M-0.000244141 7.02829C-0.000244141 3.19416 3.13572 0.0825195 6.9998 0.0825195H13.9999V13.9741H6.9998C3.13572 13.9741 -0.000244141 10.8622 -0.000244141 7.02829Z" fill="#F24E1E"/>
<path id="path2_fill" d="M14 13.9741H21C24.8641 13.9741 28.0001 17.0858 28.0001 20.9199C28.0001 24.754 24.8641 27.8657 21 27.8657H14V13.9741Z" fill="#FF7262"/>
<path id="path3_fill" d="M28.0001 7.02829C28.0001 10.8624 24.8641 13.9741 21.0001 13.9741C17.136 13.9741 14 10.8624 14 7.02829C14 3.19417 17.136 0.0825195 21.0001 0.0825195C24.8641 0.0825195 28.0001 3.19417 28.0001 7.02829Z" fill="#1ABCFE"/>
</g>
<defs>
<clipPath id="clip0_189_2057">
<rect width="28" height="41.6744" fill="white" transform="translate(0 0.0825195)"/>
</clipPath>
</defs>
</svg>
