<svg width="64" height="65" viewBox="0 0 64 65" fill="none" xmlns="http://www.w3.org/2000/svg">
<g id="_&#235;&#160;&#136;&#236;&#157;&#180;&#236;&#150;&#180;_1" clip-path="url(#clip0_189_2043)">
<path id="Vector" d="M11.3334 0.919922H52.6666C58.9332 0.919922 64 6.11659 64 12.5439V53.2959C64 59.7233 58.9332 64.9199 52.6666 64.9199H11.3334C5.06675 64.9199 0 59.7233 0 53.2959V12.5439C0 6.11659 5.06675 0.919922 11.3334 0.919922Z" fill="#330000"/>
<path id="Vector_2" d="M30.9332 39.2105H21.0132L18.9865 45.6378C18.9332 45.8838 18.7197 46.0482 18.4798 46.0206H13.4666C13.1732 46.0206 13.0933 45.8565 13.1732 45.5283L21.76 20.1746C21.8401 19.901 21.92 19.6004 22.0267 19.2719C22.1335 18.6977 22.1867 18.0959 22.1867 17.4941C22.1601 17.3573 22.2668 17.2205 22.4 17.1932H29.3066C29.5198 17.1932 29.6266 17.2751 29.6532 17.4119L39.3866 45.5829C39.4667 45.8838 39.3866 46.0206 39.1198 46.0206H33.5465C33.3598 46.0479 33.1732 45.9112 33.1197 45.7197L30.9329 39.2103L30.9332 39.2105ZM22.56 33.6586H29.3332C29.1732 33.0844 28.96 32.4004 28.7198 31.6894C28.4797 30.951 28.2398 30.1578 28 29.3373C27.7332 28.4895 27.4933 27.669 27.2266 26.8212C26.9598 25.9733 26.72 25.1801 26.5067 24.3869C26.2935 23.621 26.1066 22.91 25.92 22.2536H25.8667C25.6266 23.4296 25.3335 24.6057 24.96 25.7819C24.5598 27.0948 24.16 28.4622 23.7332 29.8299C23.36 31.2246 22.9598 32.5101 22.56 33.6589V33.6586ZM45.3332 21.9797C44.4531 22.0071 43.5998 21.6515 42.9598 21.0224C42.3465 20.3387 42.0265 19.436 42.0531 18.5063C42.0265 17.5763 42.3731 16.7012 43.0131 16.0721C43.6531 15.443 44.5063 15.1147 45.3865 15.1147C46.4263 15.1147 47.2263 15.443 47.8131 16.0721C48.3998 16.7285 48.7198 17.6036 48.6932 18.5063C48.7198 19.4363 48.3998 20.3387 47.7598 21.0224C47.1465 21.6788 46.24 22.0344 45.3332 21.9797ZM42.3467 45.72V24.6603C42.3467 24.3867 42.4535 24.2774 42.6933 24.2774H47.9733C48.2132 24.2774 48.32 24.4142 48.32 24.6603V45.72C48.32 46.0209 48.2132 46.1577 47.9733 46.1577H42.7466C42.4798 46.1577 42.3465 45.9936 42.3465 45.72H42.3467Z" fill="#FF9A00"/>
</g>
<defs>
<clipPath id="clip0_189_2043">
<rect width="64" height="64" fill="white" transform="translate(0 0.919922)"/>
</clipPath>
</defs>
</svg>
