<svg width="64" height="65" viewBox="0 0 64 65" fill="none" xmlns="http://www.w3.org/2000/svg">
<g id="Layer_1" clip-path="url(#clip0_189_2038)">
<g id="InDesign">
<path id="_18" d="M53.9996 0.919922H10.0004C4.47732 0.919922 0 5.39724 0 10.9203V54.9195C0 60.4426 4.47732 64.9199 10.0004 64.9199H53.9996C59.5227 64.9199 64 60.4426 64 54.9195V10.9203C64 5.39724 59.5227 0.919922 53.9996 0.919922Z" fill="#49021F"/>
<path id="_34" d="M22.7341 19.8552V46.3553C22.7341 46.6382 22.6077 46.7782 22.3533 46.7782H17.5142C17.2884 46.7782 17.1755 46.6382 17.1755 46.3553V19.8552C17.1755 19.6294 17.302 19.5165 17.5563 19.5165H22.394C22.558 19.4939 22.7101 19.6083 22.7326 19.7724C22.7356 19.7995 22.7356 19.8266 22.7326 19.8552H22.7341Z" fill="#FF3366"/>
<path id="_35" d="M38.436 47.3515C36.4898 47.3816 34.5617 46.9782 32.7901 46.1699C31.1404 45.4068 29.7632 44.1605 28.8375 42.5966C27.82 40.7708 27.3218 38.6997 27.4001 36.6105C27.3835 34.6689 27.8802 32.7588 28.8375 31.07C29.8234 29.3511 31.2744 27.9437 33.0234 27.0105C35.0704 25.9449 37.3553 25.4211 39.6612 25.4903C39.8012 25.4903 39.9848 25.4978 40.2106 25.5114C40.4364 25.5264 40.9301 25.5475 41.2402 25.5746V17.5701C41.2402 17.3729 41.3244 17.2736 41.4945 17.2736H46.3969C46.5203 17.257 46.6332 17.3413 46.6497 17.4647C46.6528 17.4858 46.6528 17.5069 46.6497 17.5264V42.1917C46.6497 42.6719 46.6708 43.1927 46.713 43.7556C46.7551 44.3185 46.7897 44.8258 46.8183 45.2773C46.8289 45.4579 46.728 45.625 46.564 45.7003C45.2575 46.2722 43.8923 46.6967 42.491 46.9676C41.1513 47.2145 39.7937 47.3424 38.4315 47.3499L38.436 47.3515ZM41.2432 42.1074V30.5627C40.9376 30.5025 40.6291 30.4604 40.319 30.4363C40.03 30.4077 39.741 30.3927 39.4505 30.3942C38.424 30.3836 37.411 30.6154 36.4898 31.07C34.4729 32.0303 33.2492 34.127 33.4027 36.3562C33.3816 37.2773 33.5322 38.1955 33.8467 39.0625C34.1026 39.7609 34.506 40.396 35.0298 40.9229C35.5325 41.4075 36.1406 41.7703 36.8059 41.9795C37.5088 42.2068 38.2449 42.3212 38.9839 42.3182C39.3783 42.3182 39.7455 42.3046 40.0842 42.276C40.474 42.2519 40.8609 42.1962 41.2417 42.1074H41.2432Z" fill="#FF3366"/>
</g>
</g>
<defs>
<clipPath id="clip0_189_2038">
<rect width="64" height="64" fill="white" transform="translate(0 0.919922)"/>
</clipPath>
</defs>
</svg>
