<svg width="64" height="65" viewBox="0 0 64 65" fill="none" xmlns="http://www.w3.org/2000/svg">
<g id="Layer_1" clip-path="url(#clip0_189_2046)">
<g id="Layer_2">
<g id="Surfaces">
<g id="Photo_Surface">
<g id="Outline_no_shadow">
<path id="Vector" d="M11.3333 0.919922H52.6667C58.9333 0.919922 64 6.1165 64 12.5439V53.296C64 59.7233 58.9333 64.9199 52.6667 64.9199H11.3333C5.06667 64.9199 0 59.7233 0 53.296V12.5439C0 6.1165 5.06667 0.919922 11.3333 0.919922Z" fill="#001E36"/>
</g>
</g>
</g>
<g id="Outlined_Mnemonics_Logos">
<g id="Ps">
<path id="Vector_2" d="M14.3999 45.8019V17.6583C14.3999 17.4669 14.4799 17.3575 14.6666 17.3575C15.1199 17.3575 15.5466 17.3575 16.1599 17.3301C16.7999 17.3028 17.4666 17.3028 18.1866 17.2754C18.9066 17.2481 19.6799 17.2481 20.5066 17.2207C21.3332 17.1934 22.1332 17.1934 22.9332 17.1934C25.1199 17.1934 26.9332 17.4669 28.4266 18.0412C29.7599 18.5062 30.9866 19.272 31.9999 20.284C32.8532 21.1592 33.5199 22.2258 33.9466 23.4019C34.3466 24.5506 34.5599 25.7267 34.5599 26.9575C34.5599 29.3096 34.0266 31.2515 32.9599 32.7831C31.8932 34.3147 30.3999 35.4634 28.6666 36.1199C26.8532 36.8036 24.8532 37.0498 22.6666 37.0498C22.0266 37.0498 21.5999 37.0498 21.3332 37.0224C21.0666 36.9951 20.6932 36.9951 20.1866 36.9951V45.7746C20.2132 45.966 20.0799 46.1301 19.8932 46.1575H14.7199C14.5066 46.1575 14.3999 46.0481 14.3999 45.8019ZM20.2132 22.6361V31.8258C20.5866 31.8532 20.9332 31.8805 21.2532 31.8805H22.6666C23.7066 31.8805 24.7466 31.7164 25.7332 31.3882C26.5866 31.1421 27.3332 30.6224 27.9199 29.9387C28.4799 29.2549 28.7466 28.325 28.7466 27.1216C28.7732 26.2737 28.5599 25.4258 28.1332 24.6874C27.6799 23.9763 27.0399 23.4293 26.2666 23.1284C25.2799 22.7181 24.2132 22.554 23.1199 22.5814C22.4266 22.5814 21.8132 22.5814 21.3066 22.6087C20.7732 22.5814 20.3999 22.6087 20.2132 22.6361Z" fill="#31A8FF"/>
<path id="Vector_3" d="M51.2 30.1573C50.4 29.7197 49.5466 29.4188 48.64 29.2274C47.6533 29.0086 46.6666 28.8718 45.6533 28.8718C45.12 28.8444 44.56 28.9265 44.0533 29.0633C43.7066 29.1453 43.4133 29.3368 43.2266 29.6103C43.0933 29.8291 43.0133 30.1026 43.0133 30.3487C43.0133 30.5949 43.12 30.841 43.28 31.0598C43.52 31.3607 43.84 31.6068 44.1866 31.7983C44.8 32.1265 45.44 32.4274 46.08 32.7009C47.52 33.1932 48.9066 33.8769 50.1866 34.6974C51.0666 35.2718 51.7866 36.0376 52.2933 36.9675C52.72 37.8427 52.9333 38.8 52.9066 39.7846C52.9333 41.0701 52.56 42.3556 51.8666 43.4222C51.12 44.5162 50.08 45.3641 48.88 45.8564C47.5733 46.4308 45.9733 46.7316 44.0533 46.7316C42.8266 46.7316 41.6266 46.6222 40.4266 46.3761C39.4933 46.212 38.56 45.9111 37.7066 45.5009C37.52 45.3915 37.3866 45.2 37.4133 44.9812V40.2222C37.4133 40.1402 37.44 40.0308 37.52 39.9761C37.6 39.9214 37.68 39.9487 37.76 40.0034C38.8 40.6325 39.8933 41.0701 41.0666 41.3436C42.08 41.6171 43.1466 41.7539 44.2133 41.7539C45.28 41.7539 45.9466 41.6171 46.4266 41.3709C46.8533 41.1795 47.1466 40.7145 47.1466 40.2222C47.1466 39.8393 46.9333 39.4838 46.5066 39.1282C46.08 38.7727 45.2 38.3624 43.8933 37.8427C42.5333 37.3504 41.28 36.694 40.1066 35.8735C39.28 35.2718 38.5866 34.4786 38.08 33.5487C37.6533 32.6735 37.44 31.7162 37.4666 30.759C37.4666 29.5829 37.7866 28.4615 38.3733 27.4496C39.04 26.3556 40.0266 25.4803 41.1733 24.9333C42.4266 24.2769 44 23.9761 45.8933 23.9761C46.9866 23.9761 48.1066 24.0581 49.2 24.2222C50 24.3316 50.7733 24.5504 51.4933 24.8513C51.6 24.8786 51.7066 24.988 51.76 25.0974C51.7866 25.2068 51.8133 25.3162 51.8133 25.4256V29.8838C51.8133 29.9932 51.76 30.1026 51.68 30.1573C51.44 30.212 51.3066 30.212 51.2 30.1573Z" fill="#31A8FF"/>
</g>
</g>
</g>
</g>
<defs>
<clipPath id="clip0_189_2046">
<rect width="64" height="64" fill="white" transform="translate(0 0.919922)"/>
</clipPath>
</defs>
</svg>
