<svg width="64" height="64" viewBox="0 0 64 64" fill="none" xmlns="http://www.w3.org/2000/svg">
<g id="katman_1" clip-path="url(#clip0_189_2063)">
<path id="Vector" d="M11.3332 0.719727H52.6668C58.9337 0.719727 64 5.78604 64 12.0529V51.7866C64 58.0534 58.9337 63.1197 52.6668 63.1197H11.3332C5.06631 63.1197 0 58.0534 0 51.7866V12.0529C0 5.78604 5.06631 0.719727 11.3332 0.719727Z" fill="#00005B"/>
<path id="Vector_2" d="M15.2011 44.4802V17.0396C15.2011 16.8528 15.2806 16.7454 15.4674 16.7454C15.9206 16.7454 16.348 16.7454 16.96 16.7196C17.6 16.6938 18.2658 16.6938 18.9874 16.6659C19.709 16.638 20.48 16.6402 21.3069 16.6122C22.1337 16.5843 22.9327 16.5865 23.7337 16.5865C25.92 16.5865 27.7348 16.8528 29.2274 17.4133C30.5611 17.8665 31.7874 18.6138 32.8011 19.5996C33.6537 20.4522 34.3217 21.4938 34.7469 22.6407C35.1464 23.7596 35.3611 24.9065 35.3611 26.107C35.3611 28.4007 34.8285 30.2928 33.7611 31.7875C32.6937 33.2823 31.2011 34.4012 29.468 35.0412C27.6554 35.707 25.6537 35.9475 23.4674 35.9475C22.8274 35.9475 22.4 35.9475 22.1337 35.9218C21.8674 35.896 21.4937 35.896 20.9869 35.896V44.4565C21.0127 44.6434 20.8795 44.8023 20.6927 44.8302H15.519C15.3064 44.8302 15.199 44.7228 15.199 44.4845L15.2011 44.4802ZM21.0127 21.8933V30.8533C21.3864 30.8791 21.7321 30.907 22.0521 30.907H23.4653C24.5047 30.907 25.5464 30.7481 26.5321 30.4259C27.3847 30.1854 28.1321 29.6785 28.7184 29.0128C29.279 28.347 29.5453 27.4385 29.5453 26.2659C29.5711 25.4391 29.3584 24.6122 28.9311 23.8928C28.4779 23.1991 27.8379 22.6665 27.0647 22.3722C26.079 21.9728 25.0116 21.8117 23.9184 21.8396C23.2247 21.8396 22.6127 21.8396 22.1058 21.8654C21.5732 21.8396 21.1995 21.8654 21.0127 21.8912V21.8933Z" fill="#9999FF"/>
<path id="Vector_3" d="M39.0937 23.4397H43.7605C44.0269 23.4397 44.2416 23.6266 44.3211 23.8671C44.4005 24.0797 44.4542 24.2945 44.4822 24.5329C44.5358 24.7992 44.5895 25.0934 44.6153 25.3597C44.6411 25.654 44.669 25.974 44.669 26.3197C45.4701 25.3855 46.4301 24.6124 47.5232 24.0261C48.7495 23.3324 50.1627 22.9866 51.5758 22.9866C51.7627 22.9608 51.9216 23.094 51.9495 23.2808V28.5877C51.9495 28.8003 51.8164 28.8819 51.5222 28.8819C50.5622 28.8561 49.5764 28.9356 48.6422 29.1482C47.869 29.3071 47.1216 29.5477 46.4022 29.8677C45.8953 30.1082 45.4164 30.4282 45.0427 30.8534V44.4545C45.0427 44.7208 44.9353 44.8282 44.6969 44.8282H39.4438C39.2312 44.854 39.0443 44.7208 39.0164 44.5082V29.6271C39.0164 28.9871 39.0164 28.3214 38.9906 27.6277C38.9648 26.934 38.9648 26.2403 38.9369 25.5466C38.9369 24.9324 38.8832 24.3461 38.8295 23.734C38.8038 23.6008 38.8832 23.4677 39.0164 23.4397C39.0164 23.414 39.0701 23.414 39.0958 23.4397H39.0937Z" fill="#9999FF"/>
</g>
<defs>
<clipPath id="clip0_189_2063">
<rect width="64" height="62.4" fill="white" transform="translate(0 0.719727)"/>
</clipPath>
</defs>
</svg>
